<svg width="66" height="27" viewBox="0 0 66 27" fill="none" xmlns="http://www.w3.org/2000/svg">
<path d="M8.06641 2.44531C7.88411 2.44531 7.69531 2.45182 7.5 2.46484C7.31771 2.46484 7.12891 2.47135 6.93359 2.48438V11.8398H7.59766C9.08203 11.8398 10.2799 11.6966 11.1914 11.4102C12.1159 11.1107 12.832 10.7331 13.3398 10.2773C13.8477 9.82161 14.1927 9.30729 14.375 8.73438C14.5573 8.16146 14.6484 7.59505 14.6484 7.03516C14.6484 6.38411 14.5378 5.77865 14.3164 5.21875C14.1081 4.65885 13.75 4.17708 13.2422 3.77344C12.7344 3.35677 12.0573 3.03125 11.2109 2.79688C10.3776 2.5625 9.32943 2.44531 8.06641 2.44531ZM10.1562 13.3047C9.53125 13.3047 8.95182 13.3372 8.41797 13.4023C7.89714 13.4544 7.40234 13.5195 6.93359 13.5977V23.9688C6.93359 24.0729 6.99219 24.1706 7.10938 24.2617C7.33073 24.3398 7.58464 24.4049 7.87109 24.457C8.15755 24.4961 8.45052 24.5286 8.75 24.5547C9.04948 24.5807 9.34896 24.6003 9.64844 24.6133C9.94792 24.6263 10.2279 24.6328 10.4883 24.6328C11.4258 24.6328 12.2721 24.5156 13.0273 24.2812C13.7826 24.0339 14.4271 23.6953 14.9609 23.2656C15.5078 22.8359 15.9245 22.3216 16.2109 21.7227C16.4974 21.1107 16.6406 20.4401 16.6406 19.7109C16.6406 18.9948 16.5104 18.2591 16.25 17.5039C16.0026 16.7487 15.612 16.0586 15.0781 15.4336C14.5573 14.8086 13.8867 14.3008 13.0664 13.9102C12.2591 13.5065 11.2891 13.3047 10.1562 13.3047ZM19.8438 19.0469C19.8438 20.1536 19.6224 21.1562 19.1797 22.0547C18.75 22.9401 18.138 23.6953 17.3438 24.3203C16.5625 24.9453 15.625 25.4271 14.5312 25.7656C13.4375 26.1042 12.2331 26.2734 10.918 26.2734C10.6315 26.2734 10.2865 26.2669 9.88281 26.2539C9.49219 26.2539 9.06901 26.2474 8.61328 26.2344C8.15755 26.2214 7.6888 26.2083 7.20703 26.1953C6.72526 26.1823 6.25651 26.1628 5.80078 26.1367C4.72005 26.0977 3.58724 26.0521 2.40234 26H0.976562V25.1602C1.86198 24.9779 2.55208 24.7826 3.04688 24.5742C3.55469 24.3529 3.80859 24.151 3.80859 23.9688V2.75781C3.3138 2.82292 2.82552 2.89453 2.34375 2.97266C1.875 3.03776 1.41927 3.10938 0.976562 3.1875L0.800781 1.97656C1.30859 1.83333 1.89453 1.69661 2.55859 1.56641C3.23568 1.42318 3.94531 1.29948 4.6875 1.19531C5.42969 1.07812 6.1849 0.986979 6.95312 0.921875C7.72135 0.84375 8.45703 0.804688 9.16016 0.804688C10.4622 0.804688 11.6406 0.928385 12.6953 1.17578C13.75 1.41016 14.6419 1.75521 15.3711 2.21094C16.1133 2.66667 16.6797 3.22005 17.0703 3.87109C17.474 4.52214 17.6758 5.25781 17.6758 6.07812C17.6758 7.48438 17.3438 8.69531 16.6797 9.71094C16.0156 10.7135 15.1107 11.4362 13.9648 11.8789C14.7982 12.0352 15.5729 12.3281 16.2891 12.7578C17.0052 13.1875 17.6237 13.7214 18.1445 14.3594C18.6784 14.9844 19.0951 15.7005 19.3945 16.5078C19.694 17.3021 19.8438 18.1484 19.8438 19.0469ZM41.1914 13.7148C41.1914 12.8164 41.1068 11.931 40.9375 11.0586C40.7812 10.1732 40.5534 9.33984 40.2539 8.55859C39.9544 7.76432 39.5833 7.03516 39.1406 6.37109C38.7109 5.69401 38.2227 5.11458 37.6758 4.63281C37.1289 4.13802 36.5299 3.75391 35.8789 3.48047C35.2279 3.19401 34.5312 3.05078 33.7891 3.05078C32.6302 3.05078 31.5885 3.29818 30.6641 3.79297C29.7526 4.27474 28.9779 4.97135 28.3398 5.88281C27.7148 6.78125 27.2331 7.875 26.8945 9.16406C26.556 10.4531 26.3867 11.8919 26.3867 13.4805C26.3867 14.9388 26.582 16.319 26.9727 17.6211C27.3763 18.9232 27.9102 20.069 28.5742 21.0586C29.2513 22.0352 30.0391 22.8099 30.9375 23.3828C31.8359 23.9557 32.7865 24.2422 33.7891 24.2422C34.8698 24.2422 35.8594 24.0208 36.7578 23.5781C37.6693 23.1224 38.4505 22.4518 39.1016 21.5664C39.7656 20.681 40.2799 19.5807 40.6445 18.2656C41.0091 16.9505 41.1914 15.4336 41.1914 13.7148ZM44.2188 13.3633C44.2188 15.1341 43.9258 16.8203 43.3398 18.4219C42.7539 20.0104 41.9531 21.4102 40.9375 22.6211C39.9349 23.832 38.7695 24.7956 37.4414 25.5117C36.1133 26.2279 34.707 26.5859 33.2227 26.5859C31.6602 26.5859 30.2669 26.2409 29.043 25.5508C27.819 24.8607 26.7839 23.9362 25.9375 22.7773C25.1042 21.6185 24.4661 20.2839 24.0234 18.7734C23.5807 17.263 23.3594 15.6875 23.3594 14.0469C23.3594 12.276 23.6458 10.5898 24.2188 8.98828C24.7917 7.38672 25.5729 5.98047 26.5625 4.76953C27.5521 3.55859 28.7109 2.59505 30.0391 1.87891C31.3802 1.16276 32.819 0.804688 34.3555 0.804688C35.9701 0.804688 37.3893 1.16276 38.6133 1.87891C39.8372 2.58203 40.8659 3.51953 41.6992 4.69141C42.5326 5.86328 43.1576 7.20443 43.5742 8.71484C44.0039 10.2253 44.2188 11.7747 44.2188 13.3633ZM54.082 2.44531C53.8997 2.44531 53.7109 2.45182 53.5156 2.46484C53.3333 2.46484 53.1445 2.47135 52.9492 2.48438V11.8398H53.6133C55.0977 11.8398 56.2956 11.6966 57.207 11.4102C58.1315 11.1107 58.8477 10.7331 59.3555 10.2773C59.8633 9.82161 60.2083 9.30729 60.3906 8.73438C60.5729 8.16146 60.6641 7.59505 60.6641 7.03516C60.6641 6.38411 60.5534 5.77865 60.332 5.21875C60.1237 4.65885 59.7656 4.17708 59.2578 3.77344C58.75 3.35677 58.0729 3.03125 57.2266 2.79688C56.3932 2.5625 55.3451 2.44531 54.082 2.44531ZM56.1719 13.3047C55.5469 13.3047 54.9674 13.3372 54.4336 13.4023C53.9128 13.4544 53.418 13.5195 52.9492 13.5977V23.9688C52.9492 24.0729 53.0078 24.1706 53.125 24.2617C53.3464 24.3398 53.6003 24.4049 53.8867 24.457C54.1732 24.4961 54.4661 24.5286 54.7656 24.5547C55.0651 24.5807 55.3646 24.6003 55.6641 24.6133C55.9635 24.6263 56.2435 24.6328 56.5039 24.6328C57.4414 24.6328 58.2878 24.5156 59.043 24.2812C59.7982 24.0339 60.4427 23.6953 60.9766 23.2656C61.5234 22.8359 61.9401 22.3216 62.2266 21.7227C62.513 21.1107 62.6562 20.4401 62.6562 19.7109C62.6562 18.9948 62.526 18.2591 62.2656 17.5039C62.0182 16.7487 61.6276 16.0586 61.0938 15.4336C60.5729 14.8086 59.9023 14.3008 59.082 13.9102C58.2747 13.5065 57.3047 13.3047 56.1719 13.3047ZM65.8594 19.0469C65.8594 20.1536 65.638 21.1562 65.1953 22.0547C64.7656 22.9401 64.1536 23.6953 63.3594 24.3203C62.5781 24.9453 61.6406 25.4271 60.5469 25.7656C59.4531 26.1042 58.2487 26.2734 56.9336 26.2734C56.6471 26.2734 56.3021 26.2669 55.8984 26.2539C55.5078 26.2539 55.0846 26.2474 54.6289 26.2344C54.1732 26.2214 53.7044 26.2083 53.2227 26.1953C52.7409 26.1823 52.2721 26.1628 51.8164 26.1367C50.7357 26.0977 49.6029 26.0521 48.418 26H46.9922V25.1602C47.8776 24.9779 48.5677 24.7826 49.0625 24.5742C49.5703 24.3529 49.8242 24.151 49.8242 23.9688V2.75781C49.3294 2.82292 48.8411 2.89453 48.3594 2.97266C47.8906 3.03776 47.4349 3.10938 46.9922 3.1875L46.8164 1.97656C47.3242 1.83333 47.9102 1.69661 48.5742 1.56641C49.2513 1.42318 49.9609 1.29948 50.7031 1.19531C51.4453 1.07812 52.2005 0.986979 52.9688 0.921875C53.737 0.84375 54.4727 0.804688 55.1758 0.804688C56.4779 0.804688 57.6562 0.928385 58.7109 1.17578C59.7656 1.41016 60.6576 1.75521 61.3867 2.21094C62.1289 2.66667 62.6953 3.22005 63.0859 3.87109C63.4896 4.52214 63.6914 5.25781 63.6914 6.07812C63.6914 7.48438 63.3594 8.69531 62.6953 9.71094C62.0312 10.7135 61.1263 11.4362 59.9805 11.8789C60.8138 12.0352 61.5885 12.3281 62.3047 12.7578C63.0208 13.1875 63.6393 13.7214 64.1602 14.3594C64.694 14.9844 65.1107 15.7005 65.4102 16.5078C65.7096 17.3021 65.8594 18.1484 65.8594 19.0469Z" fill="#7FFFD4"/>
</svg>
