<svg width="146" height="48" viewBox="0 0 146 48" fill="none" xmlns="http://www.w3.org/2000/svg">
<path d="M41.5312 34.7812C41.5312 36.0521 41.3229 37.2396 40.9062 38.3438C40.4896 39.4479 39.9167 40.4583 39.1875 41.375C38.4583 42.2708 37.6042 43.0729 36.625 43.7812C35.6667 44.4896 34.625 45.0833 33.5 45.5625C32.3958 46.0417 31.25 46.4062 30.0625 46.6562C28.875 46.8854 27.7083 47 26.5625 47H0.09375V2H24.2812C25.3438 2 26.4583 2.08333 27.625 2.25C28.7917 2.39583 29.9271 2.63542 31.0312 2.96875C32.1562 3.30208 33.2188 3.73958 34.2188 4.28125C35.2396 4.82292 36.125 5.48958 36.875 6.28125C37.6458 7.05208 38.25 7.94792 38.6875 8.96875C39.1458 9.98958 39.375 11.1562 39.375 12.4688C39.375 13.7188 39.125 14.8542 38.625 15.875C38.125 16.8958 37.4479 17.8125 36.5938 18.625C35.7604 19.4167 34.7917 20.125 33.6875 20.75C32.6042 21.3542 31.4583 21.8854 30.25 22.3438C31.7708 22.7604 33.2083 23.3125 34.5625 24C35.9375 24.6875 37.1354 25.5312 38.1562 26.5312C39.1979 27.5312 40.0208 28.7188 40.625 30.0938C41.2292 31.4479 41.5312 33.0104 41.5312 34.7812ZM26.7812 13.5625C26.7812 11.0208 26.1042 9.16667 24.75 8C23.4167 6.83333 21.5104 6.25 19.0312 6.25H12.5V20.8438H17.9688C19.0938 20.8438 20.1875 20.7083 21.25 20.4375C22.3125 20.1458 23.25 19.7083 24.0625 19.125C24.8958 18.5208 25.5521 17.7604 26.0312 16.8438C26.5312 15.9271 26.7812 14.8333 26.7812 13.5625ZM28.9688 34C28.9688 32.7708 28.8125 31.625 28.5 30.5625C28.1875 29.4792 27.7083 28.5521 27.0625 27.7812C26.4167 26.9896 25.6042 26.375 24.625 25.9375C23.6667 25.4792 22.5312 25.25 21.2188 25.25H12.5V42.625H20.125C21.3958 42.625 22.5729 42.4167 23.6562 42C24.7396 41.5833 25.6771 41 26.4688 40.25C27.2604 39.5 27.875 38.5938 28.3125 37.5312C28.75 36.4688 28.9688 35.2917 28.9688 34Z" fill="#DB469F"/>
<path d="M41.5312 34.7812C41.5312 36.0521 41.3229 37.2396 40.9062 38.3438C40.4896 39.4479 39.9167 40.4583 39.1875 41.375C38.4583 42.2708 37.6042 43.0729 36.625 43.7812C35.6667 44.4896 34.625 45.0833 33.5 45.5625C32.3958 46.0417 31.25 46.4062 30.0625 46.6562C28.875 46.8854 27.7083 47 26.5625 47H0.09375V2H24.2812C25.3438 2 26.4583 2.08333 27.625 2.25C28.7917 2.39583 29.9271 2.63542 31.0312 2.96875C32.1562 3.30208 33.2188 3.73958 34.2188 4.28125C35.2396 4.82292 36.125 5.48958 36.875 6.28125C37.6458 7.05208 38.25 7.94792 38.6875 8.96875C39.1458 9.98958 39.375 11.1562 39.375 12.4688C39.375 13.7188 39.125 14.8542 38.625 15.875C38.125 16.8958 37.4479 17.8125 36.5938 18.625C35.7604 19.4167 34.7917 20.125 33.6875 20.75C32.6042 21.3542 31.4583 21.8854 30.25 22.3438C31.7708 22.7604 33.2083 23.3125 34.5625 24C35.9375 24.6875 37.1354 25.5312 38.1562 26.5312C39.1979 27.5312 40.0208 28.7188 40.625 30.0938C41.2292 31.4479 41.5312 33.0104 41.5312 34.7812ZM26.7812 13.5625C26.7812 11.0208 26.1042 9.16667 24.75 8C23.4167 6.83333 21.5104 6.25 19.0312 6.25H12.5V20.8438H17.9688C19.0938 20.8438 20.1875 20.7083 21.25 20.4375C22.3125 20.1458 23.25 19.7083 24.0625 19.125C24.8958 18.5208 25.5521 17.7604 26.0312 16.8438C26.5312 15.9271 26.7812 14.8333 26.7812 13.5625ZM28.9688 34C28.9688 32.7708 28.8125 31.625 28.5 30.5625C28.1875 29.4792 27.7083 28.5521 27.0625 27.7812C26.4167 26.9896 25.6042 26.375 24.625 25.9375C23.6667 25.4792 22.5312 25.25 21.2188 25.25H12.5V42.625H20.125C21.3958 42.625 22.5729 42.4167 23.6562 42C24.7396 41.5833 25.6771 41 26.4688 40.25C27.2604 39.5 27.875 38.5938 28.3125 37.5312C28.75 36.4688 28.9688 35.2917 28.9688 34Z" fill="black" fill-opacity="0.2"/>
<path d="M95.9375 24.4375C95.9375 28.0625 95.3125 31.3333 94.0625 34.25C92.8125 37.1458 91.0833 39.6042 88.875 41.625C86.6667 43.6458 84.0521 45.1979 81.0312 46.2812C78.0104 47.3646 74.7396 47.9062 71.2188 47.9062C67.6979 47.9062 64.4271 47.3646 61.4062 46.2812C58.3854 45.1979 55.7708 43.6458 53.5625 41.625C51.3542 39.6042 49.625 37.1458 48.375 34.25C47.125 31.3333 46.5 28.0625 46.5 24.4375C46.5 20.75 47.1146 17.4583 48.3438 14.5625C49.5938 11.6458 51.3125 9.1875 53.5 7.1875C55.7083 5.16667 58.3229 3.625 61.3438 2.5625C64.3646 1.47917 67.6562 0.9375 71.2188 0.9375C74.7812 0.9375 78.0729 1.47917 81.0938 2.5625C84.1146 3.625 86.7188 5.16667 88.9062 7.1875C91.1146 9.1875 92.8333 11.6458 94.0625 14.5625C95.3125 17.4583 95.9375 20.75 95.9375 24.4375ZM83.3125 24.4375C83.3125 23.0625 83.25 21.6562 83.125 20.2188C83 18.7812 82.7708 17.3854 82.4375 16.0312C82.1042 14.6771 81.6458 13.4062 81.0625 12.2188C80.5 11.0312 79.7708 10 78.875 9.125C77.9792 8.22917 76.8958 7.53125 75.625 7.03125C74.375 6.51042 72.9062 6.25 71.2188 6.25C69.5104 6.25 68.0208 6.51042 66.75 7.03125C65.4792 7.53125 64.3958 8.21875 63.5 9.09375C62.6042 9.96875 61.875 11 61.3125 12.1875C60.75 13.375 60.3021 14.6458 59.9688 16C59.6562 17.3333 59.4375 18.7292 59.3125 20.1875C59.1875 21.625 59.125 23.0417 59.125 24.4375C59.125 25.8125 59.1875 27.2188 59.3125 28.6562C59.4375 30.0938 59.6667 31.4896 60 32.8438C60.3333 34.1771 60.7812 35.4375 61.3438 36.625C61.9271 37.8125 62.6667 38.8542 63.5625 39.75C64.4583 40.625 65.5312 41.3229 66.7812 41.8438C68.0521 42.3646 69.5312 42.625 71.2188 42.625C72.8646 42.625 74.3021 42.3646 75.5312 41.8438C76.7604 41.3021 77.8229 40.5833 78.7188 39.6875C79.6146 38.7708 80.3542 37.7188 80.9375 36.5312C81.5417 35.3229 82.0104 34.0521 82.3438 32.7188C82.6979 31.3646 82.9479 29.9792 83.0938 28.5625C83.2396 27.1458 83.3125 25.7708 83.3125 24.4375Z" fill="#BB78D5"/>
<path d="M95.9375 24.4375C95.9375 28.0625 95.3125 31.3333 94.0625 34.25C92.8125 37.1458 91.0833 39.6042 88.875 41.625C86.6667 43.6458 84.0521 45.1979 81.0312 46.2812C78.0104 47.3646 74.7396 47.9062 71.2188 47.9062C67.6979 47.9062 64.4271 47.3646 61.4062 46.2812C58.3854 45.1979 55.7708 43.6458 53.5625 41.625C51.3542 39.6042 49.625 37.1458 48.375 34.25C47.125 31.3333 46.5 28.0625 46.5 24.4375C46.5 20.75 47.1146 17.4583 48.3438 14.5625C49.5938 11.6458 51.3125 9.1875 53.5 7.1875C55.7083 5.16667 58.3229 3.625 61.3438 2.5625C64.3646 1.47917 67.6562 0.9375 71.2188 0.9375C74.7812 0.9375 78.0729 1.47917 81.0938 2.5625C84.1146 3.625 86.7188 5.16667 88.9062 7.1875C91.1146 9.1875 92.8333 11.6458 94.0625 14.5625C95.3125 17.4583 95.9375 20.75 95.9375 24.4375ZM83.3125 24.4375C83.3125 23.0625 83.25 21.6562 83.125 20.2188C83 18.7812 82.7708 17.3854 82.4375 16.0312C82.1042 14.6771 81.6458 13.4062 81.0625 12.2188C80.5 11.0312 79.7708 10 78.875 9.125C77.9792 8.22917 76.8958 7.53125 75.625 7.03125C74.375 6.51042 72.9062 6.25 71.2188 6.25C69.5104 6.25 68.0208 6.51042 66.75 7.03125C65.4792 7.53125 64.3958 8.21875 63.5 9.09375C62.6042 9.96875 61.875 11 61.3125 12.1875C60.75 13.375 60.3021 14.6458 59.9688 16C59.6562 17.3333 59.4375 18.7292 59.3125 20.1875C59.1875 21.625 59.125 23.0417 59.125 24.4375C59.125 25.8125 59.1875 27.2188 59.3125 28.6562C59.4375 30.0938 59.6667 31.4896 60 32.8438C60.3333 34.1771 60.7812 35.4375 61.3438 36.625C61.9271 37.8125 62.6667 38.8542 63.5625 39.75C64.4583 40.625 65.5312 41.3229 66.7812 41.8438C68.0521 42.3646 69.5312 42.625 71.2188 42.625C72.8646 42.625 74.3021 42.3646 75.5312 41.8438C76.7604 41.3021 77.8229 40.5833 78.7188 39.6875C79.6146 38.7708 80.3542 37.7188 80.9375 36.5312C81.5417 35.3229 82.0104 34.0521 82.3438 32.7188C82.6979 31.3646 82.9479 29.9792 83.0938 28.5625C83.2396 27.1458 83.3125 25.7708 83.3125 24.4375Z" fill="black" fill-opacity="0.2"/>
<path d="M145.094 34.7812C145.094 36.0521 144.885 37.2396 144.469 38.3438C144.052 39.4479 143.479 40.4583 142.75 41.375C142.021 42.2708 141.167 43.0729 140.188 43.7812C139.229 44.4896 138.188 45.0833 137.062 45.5625C135.958 46.0417 134.812 46.4062 133.625 46.6562C132.438 46.8854 131.271 47 130.125 47H103.656V2H127.844C128.906 2 130.021 2.08333 131.188 2.25C132.354 2.39583 133.49 2.63542 134.594 2.96875C135.719 3.30208 136.781 3.73958 137.781 4.28125C138.802 4.82292 139.688 5.48958 140.438 6.28125C141.208 7.05208 141.812 7.94792 142.25 8.96875C142.708 9.98958 142.938 11.1562 142.938 12.4688C142.938 13.7188 142.688 14.8542 142.188 15.875C141.688 16.8958 141.01 17.8125 140.156 18.625C139.323 19.4167 138.354 20.125 137.25 20.75C136.167 21.3542 135.021 21.8854 133.812 22.3438C135.333 22.7604 136.771 23.3125 138.125 24C139.5 24.6875 140.698 25.5312 141.719 26.5312C142.76 27.5312 143.583 28.7188 144.188 30.0938C144.792 31.4479 145.094 33.0104 145.094 34.7812ZM130.344 13.5625C130.344 11.0208 129.667 9.16667 128.312 8C126.979 6.83333 125.073 6.25 122.594 6.25H116.062V20.8438H121.531C122.656 20.8438 123.75 20.7083 124.812 20.4375C125.875 20.1458 126.812 19.7083 127.625 19.125C128.458 18.5208 129.115 17.7604 129.594 16.8438C130.094 15.9271 130.344 14.8333 130.344 13.5625ZM132.531 34C132.531 32.7708 132.375 31.625 132.062 30.5625C131.75 29.4792 131.271 28.5521 130.625 27.7812C129.979 26.9896 129.167 26.375 128.188 25.9375C127.229 25.4792 126.094 25.25 124.781 25.25H116.062V42.625H123.688C124.958 42.625 126.135 42.4167 127.219 42C128.302 41.5833 129.24 41 130.031 40.25C130.823 39.5 131.438 38.5938 131.875 37.5312C132.312 36.4688 132.531 35.2917 132.531 34Z" fill="#7891D5"/>
<path d="M145.094 34.7812C145.094 36.0521 144.885 37.2396 144.469 38.3438C144.052 39.4479 143.479 40.4583 142.75 41.375C142.021 42.2708 141.167 43.0729 140.188 43.7812C139.229 44.4896 138.188 45.0833 137.062 45.5625C135.958 46.0417 134.812 46.4062 133.625 46.6562C132.438 46.8854 131.271 47 130.125 47H103.656V2H127.844C128.906 2 130.021 2.08333 131.188 2.25C132.354 2.39583 133.49 2.63542 134.594 2.96875C135.719 3.30208 136.781 3.73958 137.781 4.28125C138.802 4.82292 139.688 5.48958 140.438 6.28125C141.208 7.05208 141.812 7.94792 142.25 8.96875C142.708 9.98958 142.938 11.1562 142.938 12.4688C142.938 13.7188 142.688 14.8542 142.188 15.875C141.688 16.8958 141.01 17.8125 140.156 18.625C139.323 19.4167 138.354 20.125 137.25 20.75C136.167 21.3542 135.021 21.8854 133.812 22.3438C135.333 22.7604 136.771 23.3125 138.125 24C139.5 24.6875 140.698 25.5312 141.719 26.5312C142.76 27.5312 143.583 28.7188 144.188 30.0938C144.792 31.4479 145.094 33.0104 145.094 34.7812ZM130.344 13.5625C130.344 11.0208 129.667 9.16667 128.312 8C126.979 6.83333 125.073 6.25 122.594 6.25H116.062V20.8438H121.531C122.656 20.8438 123.75 20.7083 124.812 20.4375C125.875 20.1458 126.812 19.7083 127.625 19.125C128.458 18.5208 129.115 17.7604 129.594 16.8438C130.094 15.9271 130.344 14.8333 130.344 13.5625ZM132.531 34C132.531 32.7708 132.375 31.625 132.062 30.5625C131.75 29.4792 131.271 28.5521 130.625 27.7812C129.979 26.9896 129.167 26.375 128.188 25.9375C127.229 25.4792 126.094 25.25 124.781 25.25H116.062V42.625H123.688C124.958 42.625 126.135 42.4167 127.219 42C128.302 41.5833 129.24 41 130.031 40.25C130.823 39.5 131.438 38.5938 131.875 37.5312C132.312 36.4688 132.531 35.2917 132.531 34Z" fill="black" fill-opacity="0.2"/>
</svg>
